<?xml version="1.0" encoding="utf-8"?>
<!-- Generator: Adobe Illustrator 25.2.0, SVG Export Plug-In . SVG Version: 6.00 Build 0)  -->
<svg version="1.1" id="Capa_1" xmlns="http://www.w3.org/2000/svg" xmlns:xlink="http://www.w3.org/1999/xlink" x="0px" y="0px"
	 viewBox="0 0 2221.2 1372.7" style="enable-background:new 0 0 2221.2 1372.7;" xml:space="preserve">
<style type="text/css">
	.st0{fill:#2B242A;}
	.st1{fill:#352E35;}
	.st2{fill:#72BCC6;}
	.st3{fill:#A7CFE0;}
	.st4{fill:#161013;}
	.st5{fill:#EDEDED;}
	.st6{fill:#C6C6C6;}
	.st7{fill:#E5E5E5;}
	.st8{fill:#AA7CB5;}
	.st9{fill:#DADADA;}
	.st10{fill:#259CC6;}
	.st11{fill:#1F95C5;}
	.st12{fill:#FDC406;}
	.st13{fill:#FAB311;}
	.st14{fill:#074F77;}
	.st15{fill:#F9BB8D;}
	.st16{fill:#00B1B1;}
	.st17{fill:#16070E;}
	.st18{fill:#035F90;}
	.st19{fill:#0D0E22;}
	.st20{fill:#6AC2BF;}
	.st21{fill:#D8D8D8;}
</style>
<g>
	<g>
		<g>
			<path class="st0" d="M1443.6,849v57.6c0,28.3-28.4,51.3-63.5,51.3H63.5c-35.1,0-63.5-23-63.5-51.3L0,849H1443.6z"/>
			<g>
				<path class="st1" d="M63.9,779.8c0,38.2,31,69.2,69.1,69.2h1177.4c38.2,0,69.2-31,69.2-69.2v-703c0-38.2-31-69.2-69.2-69.2
					H133.1c-38.2,0-69.1,31-69.1,69.2V779.8z"/>
				<path class="st2" d="M697.4,33.5c0,6.7,5.4,12.1,12.1,12.1c6.7,0,12.1-5.4,12.1-12.1c0-6.7-5.4-12.1-12.1-12.1
					C702.8,21.4,697.4,26.8,697.4,33.5z"/>
				<rect x="121.6" y="69.9" class="st0" width="1200.3" height="719.8"/>
				<rect x="144.1" y="90.2" class="st3" width="1155.3" height="679.3"/>
			</g>
			<rect x="579" y="862.9" class="st4" width="285.6" height="50.8"/>
		</g>
		<g>
			<rect x="161" y="107.9" class="st5" width="1126.9" height="643.9"/>
			<rect x="161" y="107.9" class="st6" width="1126.9" height="76.4"/>
			<path class="st7" d="M746.2,146.1c0,11.9,9.7,21.6,21.6,21.6h330c11.9,0,21.6-9.7,21.6-21.6l0,0c0-11.9-9.7-21.6-21.6-21.6h-330
				C755.9,124.6,746.2,134.2,746.2,146.1L746.2,146.1z"/>
			<path class="st7" d="M1229.8,146.1c0,11.6,9.4,21,21,21c11.6,0,21-9.4,21-21c0-11.6-9.4-21-21-21
				C1239.3,125.1,1229.8,134.5,1229.8,146.1z"/>
			<path class="st7" d="M1181.5,146.1c0,11.6,9.4,21,21,21c11.6,0,21-9.4,21-21c0-11.6-9.4-21-21-21
				C1191,125.1,1181.5,134.5,1181.5,146.1z"/>
			<path class="st7" d="M1133.3,146.1c0,11.6,9.4,21,21,21c11.6,0,21-9.4,21-21c0-11.6-9.4-21-21-21
				C1142.7,125.1,1133.3,134.5,1133.3,146.1z"/>
			<rect x="1020.4" y="219.4" class="st8" width="224.9" height="72"/>
			<rect x="192.3" y="352.1" class="st8" width="1053" height="64.4"/>
			<rect x="192.3" y="657.9" class="st9" width="1053" height="64.4"/>
			<rect x="419" y="219.4" class="st6" width="344.9" height="25.3"/>
			<rect x="464.5" y="255.4" class="st6" width="254" height="25.3"/>
			<rect x="878.6" y="550.5" class="st6" width="344.9" height="25.3"/>
			<rect x="878.6" y="511.3" class="st6" width="344.9" height="25.3"/>
			<rect x="878.6" y="445.6" class="st10" width="344.9" height="49.3"/>
			<rect x="512.2" y="439.3" class="st11" width="255.5" height="172.5"/>
			<rect x="225.6" y="439.3" class="st11" width="255.5" height="172.5"/>
			<rect x="924.1" y="586.5" class="st6" width="254" height="25.3"/>
		</g>
	</g>
	<g>
		<path class="st12" d="M2188,646.2c21.9,71.1,74.5,390.4-27.3,563.1c-62.9,106.6-256.9,155.8-377.2,155.8
			c-120.3,0-483.8-2.7-541.2-46.5c-57.4-43.7-103.9-300.7-41-363.5c62.9-62.9,319.8-95.7,404.5-161.3
			c84.7-65.6,243.3-235.1,352.6-235.1C2067.8,558.7,2166.2,575.1,2188,646.2z"/>
		<path class="st13" d="M2059.1,570c-20.3,137.5-20.3,286.1-80.3,414.3c-43.9,93.8-121.7,179.6-226.5,202.7
			c-61.9,13.6-120,3.4-179.2-16.9c-58.5-20-120.1-45.4-183.1-43.1c-53.5,1.9-96.6,17.1-135.3,54.3c-19.1,18.4-40,31.8-62,39.4
			c-26.5-93.9-33.6-223.4,8.6-265.6c62.9-62.9,319.8-95.7,404.5-161.3c84.7-65.6,243.3-235.1,352.6-235.1c36,0,70.7,1.8,102,6.7
			C2059.8,566.8,2059.3,568.2,2059.1,570z"/>
		<g>
			<path class="st14" d="M974.3,1078.2l8.3,47.8c0,0,295.8-143.3,342.6-149.4c49-6.3,63-12.9,63-12.9l38.9-83.3
				c0,0-2.7-39.7-65.9-46.9C1281.2,824.4,974.3,1078.2,974.3,1078.2z"/>
			<path class="st14" d="M1649.7,824.4l-288.5,9.1l-3.5,129.8c0,0,336.6,175.5,488.3-2.7C1802.6,951,1649.7,824.4,1649.7,824.4z"/>
			<g>
				<path class="st15" d="M1740.6,658.9c-27.5,114.3-132.1,149-132.1,149s-4.8,12.4-9.1,19.7c-2.9,5-19.9,8.2-27.8,15.1
					c-8.8,7.6-25.4-0.1-21.6-12.5c3-9.9,20.6-28.2,25.6-31c7.4-4.3,20.8-7.9,20.8-7.9l82.1-136.9c0,0,1.6-38.3,11.3-66
					C1701.8,554.2,1757.6,588.4,1740.6,658.9z"/>
				<path class="st16" d="M1757.4,624.1c93.6-55.6,55.6-241.6,55.6-241.6s-29.4,0.7-55.3,27.2c-22.3,22.9-85.3,198.9-88.2,214.4
					C1666.6,639.6,1725.6,646.5,1757.4,624.1z"/>
			</g>
			<path class="st17" d="M880.9,1010.8c-14.6-0.2-5,68.6,3.9,82c9,13.4,48.3,32.6,75.3,48.4c15.3,1.1,20.7-25.4,20.7-25.4l-5.2-29.7
				c0,0-40.8-11-61-25.1C896,1047.9,899.3,1011.1,880.9,1010.8z"/>
			<path class="st18" d="M1744.9,870.7c0,0-390.9-33.6-442.2,41.9c-59.7,88.1,85.6,94.2,85.6,94.2s316.2,116.3,410.5,78.3
				c117-47.2,152.9-163.5,148.5-219.9C1903.9,855.5,1744.9,870.7,1744.9,870.7z"/>
			<path class="st17" d="M1012,1358.9c-15.8-1.8-91.6-63.9-107.7-81.5c-9.9-10.8,7.3-17,23.2-6.8c33.7,21.5,91.2,26.5,91.2,26.5
				l25.8,28.6C1044.6,1325.6,1027.8,1360.6,1012,1358.9z"/>
			<path class="st18" d="M1013.6,1291.3l36.6,40.4c0,0,257.5-258,295.6-289.9c38.2-31.9,56.2-67.8,56.2-67.8l-6.6-50.3l-92.6-11.2
				L1013.6,1291.3z"/>
			<path class="st19" d="M1781.1,175.9c0,0-32,6.1-21.7,51.4c4.5,19.7,42.2,79.1,42.2,79.1l20.6-119.8L1781.1,175.9z"/>
			<path class="st20" d="M1946.7,906c-23.5,31.5-308-43.9-314.5-82.4c-6.4-38.5,50.5-163.4,76.6-239.8
				c23.5-68.7,52.9-176.3,86.1-195.8c16.4-9.6,63.2-8.4,63.2-8.4l66.8,10.7c0,0,56.5,31.2,79.7,54.4c16.9,16.9-12.3,132-28.3,206.7
				C1959.5,729.8,1970.2,874.5,1946.7,906z"/>
			<path class="st15" d="M1778.4,319.4c5,30.7,20.4,48.4,37.3,58.2c16.9,9.9,38.6,1.3,38.6,1.3s-19.1,9.8-22.3,17.8
				c-4.2,10.6,7.2,25.6,42.3,24.7c35.1-0.9,56.8-28.3,56.8-28.3s-16.5-29.4-17-46.4c-0.5-17-3-28.3,5-59.4
				c8.2-32.4,14.3-39.3,7.2-75c-9-44.9-63.2-46.4-63.2-46.4s-85.7,9.9-89.8,36C1769.2,228,1773.5,288.6,1778.4,319.4z"/>
			<path class="st19" d="M1945.7,194.8c5.4,17.7-12.5,71.8-14.9,83.6c-2.4,11.8-29.6,15.2-31.5,2.2c-1.2-8.1-1.1-4.9-6.5-17.1
				c-11.4-25.8,5.1-40.5-2.6-47.2c-23.2-20.2-64.8,36.9-120.5-8.5c-12.6-10.3-21.5-37.3,7-51.4
				C1805.2,142.2,1940.4,177.1,1945.7,194.8z"/>
			<path class="st15" d="M1899.3,280.5c-13,3.7,10.1,18,19.8,15c6.9-2.1,13.5-12.7,11.8-26.1c-1.9-14.8-12.1-19.6-19-17.5
				C1899.8,255.6,1908.2,278,1899.3,280.5z"/>
			<g>
				<path class="st15" d="M1957.7,778.6c-26.3,27.3-75.9-32.6-62.3-60.5c30.9-63.2,12.8-99.3,12.8-99.3l113.3,1.3
					C2021.5,620.1,2021.5,712.5,1957.7,778.6z"/>
				<path class="st15" d="M1895.5,718.1c-49,6.6-203.6,96.3-203.6,96.3s-13,0.3-21.5-0.4c-11.6-0.9-30.9,8.9-38.7,14.1
					c-6.1,4-13.8,12.1-5.6,13c13,1.5,30.4,0,30.4,0s11.6,7.4,17.2,6.5c8.4-1.3,19.3-12.7,19.3-12.7s233.5-15.4,264.7-56.4
					C1994.2,730.8,1923,714.4,1895.5,718.1z"/>
				<path class="st16" d="M2017.1,686.2c30.6-96.7,16.5-223.5-12.4-241.4c-21.3-13.2-89.8,100.6-96.9,123.5
					c-9.4,30.5-14.3,96.9-7.7,111.3C1906.6,694,2008.5,713.1,2017.1,686.2z"/>
			</g>
			<path class="st19" d="M1941.3,209.7c0,0,38.2-4.5,30.1-34.1c-8-29.6-35.5-8.3-35.5-8.3s11.2-35.8-23.7-45.3
				c-32-8.7-38.5,25.5-38.5,25.5s1.2-45.6-31-42.3c-32.2,3.4-31.9,33.9-31.9,33.9s-17.8-35.9-44.7-24.2c-25.3,11-2.2,41.6-2.2,41.6
				s-31.4-2.9-32,22.5c-0.7,32.1,32.4,30.7,32.4,30.7L1941.3,209.7z"/>
			<g>
				<polygon class="st21" points="1311.9,830.2 1606,830.2 1535.1,646.5 1241,646.5 				"/>
				<polygon class="st5" points="1309.6,830.2 1594,830.2 1525.4,646.5 1241,646.5 				"/>
				<rect x="1309.1" y="830.2" class="st21" width="440.1" height="34.3"/>
			</g>
		</g>
	</g>
</g>
</svg>
