<?xml version="1.0" encoding="utf-8"?>
<!-- Generator: Adobe Illustrator 25.2.0, SVG Export Plug-In . SVG Version: 6.00 Build 0)  -->
<svg version="1.1" id="Capa_1" xmlns="http://www.w3.org/2000/svg" xmlns:xlink="http://www.w3.org/1999/xlink" x="0px" y="0px"
	 viewBox="0 0 1408.1 1364.3" style="enable-background:new 0 0 1408.1 1364.3;" xml:space="preserve">
<style type="text/css">
	.st0{fill:#BDCDEB;}
	.st1{fill:#9FBDE4;}
	.st2{fill:#27224F;}
	.st3{fill:#31415E;}
	.st4{fill:#42587F;}
	.st5{fill:#F7B8B2;}
	.st6{fill:#DF8080;}
	.st7{fill:#263F56;}
	.st8{fill:#335472;}
	.st9{fill:#F2AAA0;}
	.st10{fill:#A183BB;}
	.st11{fill:#AE9DCC;}
	.st12{fill:#F0878B;}
	.st13{fill:#FFFFFF;}
	.st14{fill:#F2959B;}
	.st15{fill:#B0B0B0;}
	.st16{fill:#C6C6C6;}
	.st17{fill:#EDEDED;}
	.st18{fill:#DADADA;}
</style>
<g>
	<path class="st0" d="M448.7,1273c88.6-14.7,178.4-21.7,268.2-20.8c72.8,0.7,145.6,6.4,218.2,2c72.6-4.4,146.2-19.7,208.2-57.8
		c78.1-47.9,132.1-129.4,158.7-217c26.6-87.7,27.8-181.4,17.1-272.4c-14.7-124-55.6-252.3-150.5-333.5c-24.1-20.7-51.7-38-82.3-46.5
		c-29.9-8.4-61.5-8.1-92.5-7.7c-51.3,0.6-102.6,1.2-153.9,1.8c-35.2,0.4-71.2,1-104,13.7c-52.9,20.5-89.8,70.2-110.7,122.9
		c-20.9,52.8-28.5,109.6-40.7,165C559,738.4,512.4,849.5,447.9,949c-34,52.4-73.8,100.4-113.6,148.4c-27,32.6-67.4,73.9-49.8,120
		C311.4,1287.9,388,1283.1,448.7,1273z"/>
	<path class="st1" d="M1172.3,651.8c-12.3-94.3-34-233.8-109.8-300.2c-42.6-37.2-133.5-10.9-159.5-10.6c-43,0.4-101-20-141.5-5.6
		C694,359.2,670.2,410,647.7,458.7c-31.1,67.2-34.4,172.1-42.9,245.7c-7.8,67.9,38.3,103.7-2.8,157.7c-19.8,26-41.6,51.7-66.2,73.4
		c-21.1,18.6-44.6,34.4-67.9,50.1c-40.2,27.1-85.5,55.1-112.3,96.7c26.8,6.9,58.7,4,86.6-0.1c74.3-11.2,149.7-16.5,225-15.9
		c61,0.5,122.1,4.9,183,1.5c60.9-3.4,122.6-15,174.7-43.9c65.5-36.5,110.8-98.4,133.1-165C1180.3,792.2,1181.3,721,1172.3,651.8z"/>
	<path class="st2" d="M939,196.3c0.9-3.3-0.9-7.2-4-8.7c4.1-1.4,4.7-8.2,0.8-10.2c2.1-3.8,4.3-7.8,4-12.1c-0.3-4.3-4.2-8.6-8.4-7.7
		c2.9-3.5,0.5-9.7-4-10.4c2-7.5-5.3-15.9-13-15c-0.4-3.4-0.9-7-3-9.7c-2.1-2.7-6.3-4.2-9.1-2c-0.8-8.2-9.7-14.6-17.7-12.8
		c-1.8-3.6-3.9-7.5-7.5-9.3c-3.7-1.8-9.2,0.2-9.4,4.2c-0.9-3.5-6.5-4.5-8.5-1.5c-4.7-6.2-14.9-7.1-20.6-1.8
		c-3.1-1.3-6.3-2.7-9.7-2.5c-3.4,0.2-6.9,2.4-7.4,5.7c-5.7-3.5-14.2-1.3-17.4,4.6c-5.4-1.8-11.6-2.6-16.6,0.2
		c-5,2.8-7.3,10.4-3.2,14.3c-1.8,0.6-3.7,1.4-4.9,2.9c-1.2,1.5-1.2,4.1,0.5,5.1c-5.2,2.2-8.5,8.1-7.7,13.7c-2.3,2.5-4.7,5-5.7,8.3
		c-1,3.2-0.3,7.2,2.5,9.1c-1.8,2.2-3.6,4.5-3.8,7.3c-0.2,2.8,2.1,5.9,4.9,5.4c-3.8,5.2,0.7,14.1,7.2,14c-1,6.1,4.4,11.7,10.4,13.1
		c6,1.3,12.2-0.6,17.9-2.9c17.9-7.3,35.6-19.2,54.7-16.4c9.5,1.4,18.1,6.5,25.2,12.9c6.9,6.3,11.2,16,18.7,21.4
		c6.1,4.4,30,8.1,23.7-6.2c3.6-0.5,5.5-4.3,3.6-7.4C934.8,201.7,938.1,199.7,939,196.3z"/>
	<path class="st3" d="M960.5,983.2c-50,25.5-349.9-124.2-405.4-151.9c-51.6-25.8-116.9-123.9-79-155.1
		c53.5-44.1,273.8,21.6,273.8,21.6s91.7-41.6,200.3,12.7C1058.9,764.8,992.8,966.8,960.5,983.2z"/>
	<path class="st4" d="M1024.9,971.9c-88.3,79.7-358.2,17.1-420.1,14.2c-57.6-2.7-142-140.9-69.4-167.6c69.4-25.6,309.5-46,309.5-46
		L1050,782C1050,782,1090.7,912.5,1024.9,971.9z"/>
	<path class="st5" d="M447.4,679.8c35.9-63.9,106,58.7,106,58.7s-18.6,57.9-40,100.8c-28.8,57.7-148.8,262.2-148.8,262.2
		s-17.2,18.5-34.1,8.8c-16.9-9.7-15.3-27.2-15.3-27.2S385.4,790.2,447.4,679.8z"/>
	<path class="st6" d="M249.2,1168c-0.3-0.3-0.7-0.6-1.1-1c-0.3-0.4-0.5-0.8-0.9-1.2c-0.8-0.7-1.6-1.3-2.4-2c-1.5-1.3-3-2.7-4.5-4.1
		c-1.5-1.3-2.8-2.7-4.2-4.2c-0.7-0.8-1.4-1.5-2-2.4c-0.6-0.8-1.3-1.3-2.1-1.9l-0.4,0.3c0.3,1,0.6,1.8,1.2,2.6
		c0.6,0.8,1.2,1.6,1.9,2.4c1.3,1.6,2.7,3.1,4.2,4.6c1.4,1.4,3,2.7,4.6,3.9c0.8,0.6,1.7,1.2,2.5,1.8c0.4,0.3,0.7,0.4,1.2,0.5
		c0.6,0.2,1.2,0.5,1.8,0.8L249.2,1168z"/>
	<path class="st7" d="M360.1,1161.8c-7.2,9.3-33.3,15.8-60.4,28c-16.6,7.5-32.1,12-46.1,14.7c-28.8,5.5-56.6-30-54.9-38.4
		c0.9-4.7,4.3-17.3,6.4-18.9c49,16.1,120.7-24.8,120.7-24.8l41.2,12.8C367.7,1144.6,367.3,1152.5,360.1,1161.8z"/>
	<path class="st8" d="M363.5,1147.7c-6.2,10-33.3,15.7-60.4,28c-16.6,7.5-32.1,12-46.1,14.7c-28.8,5.5-55.2-33.8-52.5-41.8
		c3.3-9.9,17.4-14.1,17.4-14.1l93.5-51.3c0,0,7.8,13.4,23.1,16c15.3,2.6,26.3,2.5,26.3,2.5C365.4,1111,373.9,1131,363.5,1147.7z"/>
	<path class="st3" d="M384,1086.5c14.1-1.8,144.2-217.6,170.4-285.9c47.2-123-56.8-239-115.8-131.3
		c-80.8,147.8-134,377.2-133.4,386.6C305.9,1065.3,369.9,1088.3,384,1086.5z"/>
	<path class="st5" d="M513.4,861.4c132.2-119.5,82.1,127.3,82.1,127.3s-42.3,43.7-80.4,72.7c-51.3,39-249.4,169.4-249.4,169.4
		s-15.5,7.2-30.4-9.2c-14.9-16.5-5.8-29.2-5.8-29.2S419.4,946.3,513.4,861.4z"/>
	<path class="st6" d="M132.6,1239.2c-0.4-0.9-0.4-1.9-0.8-2.9c-0.3-0.9-0.8-1.8-1.2-2.8c-0.8-1.9-1.5-3.8-2.2-5.7
		c-0.7-1.9-1.4-3.8-1.9-5.8c-0.5-1.9-0.8-3.7-1.8-5.4l-0.5,0.1c-0.4,2,0.1,3.9,0.5,5.9c0.5,2,1,3.9,1.7,5.8c0.7,1.9,1.4,3.7,2.3,5.5
		c0.5,1,1,1.9,1.5,2.9c0.6,0.9,1.4,1.7,2.1,2.5L132.6,1239.2z"/>
	<path class="st7" d="M234.8,1282.8c-10.5,5.2-36.8-0.6-66.6-1.7c-18.2-0.6-34.1-3.5-47.8-7.2c-28.3-7.8-37.4-51.9-32.3-58.7
		c2.9-3.8,11.5-13.6,14.1-14.1c36.8,36.1,119.2,31.2,119.2,31.2l31.3,29.7C249.2,1270.7,245.4,1277.6,234.8,1282.8z"/>
	<path class="st8" d="M244.1,1271.6c-10,6.2-36.8-0.6-66.6-1.7c-18.2-0.7-34.1-3.5-47.8-7.2c-28.3-7.8-34.6-54.7-28.6-60.8
		c7.4-7.4,21.8-5,21.8-5l106.6-4.6c0,0,1.1,15.4,13.7,24.6c12.6,9.1,22.5,13.8,22.5,13.8C262.1,1239.5,260.8,1261.2,244.1,1271.6z"
		/>
	<path class="st4" d="M288.5,1220.7c14.2-0.1,204.8-108.9,313.8-215.9c99.2-97.3,20.6-260.7-90.9-170.5
		c-130.9,106-271.9,321.9-272.4,331.3C238.6,1175,274.2,1220.8,288.5,1220.7z"/>
	<path class="st9" d="M820,493.5c0,0-62.3,167.2-108,237.3c-9.8,15-45.2-1.2-64.3-16.7c-13.7-11.2,11.2-89.9,15.2-104.4
		c10.4-37.1,28.5-98.8,59.7-179.6c10.8-27.9,28.4-61.3,51.5-77.9C788.7,341.6,820,493.5,820,493.5z"/>
	<path class="st10" d="M662.1,530.8c3.7,11.6,88.5,59.1,88.5,59.1s47.2-55,61.8-100c11.5-35.5,32-123.3,10.4-126.1
		c-21.5-2.7-26.6-40.2-39.7-36.2c-35.9,11-55.7,44.9-67.5,73.2C703.3,430.3,658.3,519.2,662.1,530.8z"/>
	<path class="st11" d="M1058.3,834c-9,9.6-109.6-9.3-226.1-14.7c-76-3.5-133.9-0.3-136.6-18.4c-9.2-61.7,23.4-55.9,28-162.7
		c4.6-106.8,13.9-300.6,59.4-310.4c26.5-5.7,67-13.4,67-13.4l86.5,2c0,0,58.7,8.7,94.7,33.9c27.3,19.1,37.7,378.4,37.7,378.4
		S1078.8,812.3,1058.3,834z"/>
	<path class="st5" d="M824.7,305.1c12.2,6,27.1,1.6,27.1,1.6s3,7.7,1.5,12.2c0,0-6.1,15.6,26.8,16.4c37.6,0.9,56.4-19,56.4-19
		c-20.5-37.5-24.1-92.9-24.1-92.9s3.9-14-2.8-43.2c-8.6-36.8-77.3-49.9-77.3-49.9l-41.1,24c0,0-4.2,22.2-0.6,41.3
		C796.2,224.9,793.6,289.8,824.7,305.1z"/>
	<path class="st2" d="M773.8,164.7c3.7,22.7,16.7,30.1,16.7,30.1l-0.3-25.4c0,0,18.1,4.2,34.2,1.5c18.5-3.1,39.8-16,52-6.8
		c20,15.1,16,61.3,23.3,65.4c9.4,5.3,15.6,12.1,17.4,2.3c1.3-7.2,9.2-20.2,13.2-56.9c2.4-22.7-12.8-31.5-33.4-51.3
		c-26-25-60-20.6-87.4-13.2C785.4,116.8,770.5,144.9,773.8,164.7z"/>
	<path class="st12" d="M826.3,212.7c0.7,1.8,0.8,3.7,0.9,5.6c0,1.9,0,3.8-0.2,5.6c-0.4,3.7-1,7.4-1.9,11.1l-0.2,0.7l-0.7,0.4
		c-1.5,0.8-3,1.9-4,3.1c-1.1,1.2-1.3,2.4-0.8,3.7c0.7,1.2,2.3,2.2,4,2.7c1.7,0.7,3.6,1,5.5,1.3c-1.9,0.4-3.9,0.4-5.9,0.2
		c-2-0.3-4.2-0.9-5.7-2.9c-0.7-1-1.1-2.3-0.9-3.6c0.2-1.3,0.8-2.4,1.4-3.3c1.4-1.8,3.1-2.9,5-4l-0.8,1l2.5-10.7
		C825.3,220,826.4,216.4,826.3,212.7z"/>
	<path class="st13" d="M846.4,257.3c-0.9,6.8-9.1,11.1-15.8,11.8c-6,0.7-12.9-2.9-14.7-7.6L846.4,257.3z"/>
	<path class="st2" d="M891.9,276.4c-19.7,24.4-40,30.2-40,30.2l1.5,12.2C872.6,318.3,889.6,298.6,891.9,276.4z"/>
	<path class="st2" d="M850.7,215.9c0.5,3.1,2.9,5.2,5.5,4.8c2.5-0.4,4.2-3.2,3.8-6.3c-0.5-3.1-3-5.3-5.5-4.9
		C851.9,210.1,850.2,212.9,850.7,215.9z"/>
	<path class="st2" d="M869.1,202.4c-0.8,0.1-6.1-1.5-11.8-1.3c-6,0.2-11.5,2.1-12.4,1.8c-3.8-1-4.8-6.5-1.7-8.9
		c0.5-0.4,6.4-1.7,12.7-1.6c6.3,0,12.6,4.1,13.3,4.8C871.4,199,870.4,202.2,869.1,202.4z"/>
	<path class="st2" d="M812.2,220.3c0.5,3.1-1.2,5.9-3.8,6.3c-2.5,0.4-5-1.8-5.5-4.8c-0.5-3.1,1.2-5.9,3.8-6.3
		C809.2,215.1,811.7,217.2,812.2,220.3z"/>
	<path class="st2" d="M792.7,211.3c0.8-0.2,3.1-1.6,8.6-3.1c5.8-1.6,11.6-1.6,12.4-2.1c3.3-2.1,2.6-7.7-1.1-9
		c-0.7-0.2-6.7,0.2-12.6,2.3c-4.6,1.7-7.6,6.5-8,7.2C790.4,209.2,791.5,211.5,792.7,211.3z"/>
	<path class="st5" d="M899.7,229.5c-10.3-0.1,4.7,12.2,12.5,12.3c5.5,0,10-4.2,10.9-12.3c1-8.9-3.7-14.4-9.3-14.4
		C904.1,215,906.8,229.6,899.7,229.5z"/>
	<path class="st5" d="M1047.8,387.4c38.2,62.9-5.1,269.3-30.9,309.7c-15.8,24.6-89.6-20.8-89.6-20.8s18.9-73.9,11.3-158.8
		c-2-21.8-4.7-64.4,26.9-109.3C985.3,379.9,1019.2,340.5,1047.8,387.4z"/>
	<path class="st10" d="M929.7,609.5c0,0,111.5,18.7,123.6,5c7.5-8.4,21.3-132.2,20.5-179.4c-0.7-37.3-33.5-87.8-57.5-93.8
		c-25.9-6.5-78.8,96.3-83,146.8C929.2,538.6,929.7,609.5,929.7,609.5z"/>
	<path class="st14" d="M867.2,233.3c0.6,3.9-4.2,7.9-10.9,9c-6.7,1.1-12.6-1.2-13.2-5.1c-0.6-3.9,4.2-7.9,10.9-9
		C860.6,227.1,866.5,229.4,867.2,233.3z"/>
	<path class="st14" d="M814.7,241.9c0.6,3.9-4.2,7.9-10.9,9c-6.7,1.1-6.8-2.1-7.5-6c-0.6-3.9-1.5-7,5.2-8.1
		C808.1,235.8,814,238,814.7,241.9z"/>
	<path class="st2" d="M917.2,228.6c-0.7-0.5-1.4-0.7-2.1-0.7c-1.5,0-2.8,1-3.7,2.1c-0.9,1.2-1.5,2.6-1.5,4l0.1,0.7l0.8-0.1l0.8-0.2
		c-0.3-1-1.1-4.5-1.1-7.7c0-2,0.4-3.8,1.2-4.8c0.6-0.7,1.7-1.2,2.7-1.1c1.4,0,2.5,0.6,2.8,2.3c0.1,0.4,0.5,0.7,0.9,0.6
		c0.4-0.1,0.7-0.5,0.6-0.9c-0.4-2.4-2.4-3.6-4.3-3.6c-1.4,0-2.9,0.6-3.9,1.7c-1.3,1.5-1.6,3.7-1.6,5.8c0,3.5,0.9,7.1,1.2,8.1
		c0.1,0.4,0.5,0.7,0.9,0.6c0.4-0.1,0.7-0.5,0.6-0.9l0-0.4c0-0.9,0.4-2.1,1.2-3c0.7-0.9,1.6-1.5,2.5-1.5c0.4,0,0.8,0.1,1.2,0.4
		l1.1-0.2L917.2,228.6L917.2,228.6z"/>
	<path class="st5" d="M965.5,739.6C924,762.2,825,796.7,790.4,803.5c-41,17.2-48.3-19-48.3-19l-17.5-5.4l-36.5-27.9
		c0,0,33.8-5.9,54.7-3.4c12.6,1.5,40,12.4,40,12.4s93.8-74.1,153.8-112.2c10.8-6.9,95.2-12.9,95.3,12.9
		C1032,683,1010.2,715.1,965.5,739.6z"/>
	<path class="st15" d="M761.4,798.5c-0.5,11.8-7.1,21.1-14.8,20.8l-319.2-14.7c-7.6-0.3-13.3-10.2-12.8-22L761.4,798.5z"/>
	<path class="st16" d="M866.2,803.3c-0.5,11.8-3.8,21.3-7.3,21.1l-145.6-6.7c-3.5-0.2-5.8-9.9-5.3-21.7L866.2,803.3z"/>
	<path class="st17" d="M726,787.1c-0.2,5.4-4.7,9.5-9.9,9.3L415,782.5c-5.2-0.2-9.3-4.8-9.1-10.2l-44.6-178.5
		c0.2-5.3,4.7-9.5,9.9-9.3l301.1,13.9c5.2,0.2,9.3,4.8,9,10.2L726,787.1z"/>
	<path class="st18" d="M720.8,774.1c-0.3,6.6-4.9,11.8-10.3,11.5l-288.9-13.3c-5.4-0.2-9.5-5.8-9.2-12.4l-45.5-160.1
		c0.3-6.6,5-11.8,10.3-11.5l288.9,13.3c5.4,0.2,9.5,5.8,9.2,12.4L720.8,774.1z"/>
	<path class="st2" d="M815.3,180.8c3.8,0.2,7.6-2.2,9-5.8c0.8,1.6,2.6,2.6,4.4,2.4c1.8-0.2,3.3-1.6,3.7-3.4c1.8,2,5.9,0.6,6.1-2.1
		c2.1,3.4,6.4,5.1,10.2,4.1c3.8-1,6.8-4.7,6.9-8.6c1.1,1.1,2.2,2.2,3.7,2.4c1.5,0.2,3.2-1,2.9-2.5c0.4,1.6,2.1,2.8,3.8,2.7
		c1.7-0.1,3.2-1.5,3.4-3.1c-0.6,3.1,0.4,6.5,2.9,8.4c2.4,1.9,6.3,2,8.5-0.2c-1.8,2.7,0.5,7.1,3.8,7.1c-3.7,4.8-2,12.8,3.4,15.5
		c-2.5,2.4-1,7.5,2.4,8.1c-1.2,2.6-0.5,5.9,1.5,7.8c-0.7,4.8,1.4,10,5.3,13c0.6,0.4,1.2,0.8,1.9,0.9c1.5,0.2,2.9-1,3.4-2.5
		c0.5-1.4,0.3-3,0-4.5c-1.5-10.3-3.1-20.5-4.7-30.8c-1.7-11-3.6-22.7-10.8-31.2c-7-8.4-18.2-12.4-29.1-12.8
		c-10.9-0.3-21.7,2.6-32,6.3c-5.4,1.9-10.7,4-16,6c-4.2,1.5-16.6,3.3-19.7,6.8c-5.8,6.7,5.5,17.8,16.5,9.2
		C808.2,177.8,811.4,180.6,815.3,180.8z"/>
</g>
</svg>
